# xmcd
#
# Track frame offsets:
# 150
# 13962
# 27500
# 40585
# 52505
# 64202
# 76292
# 89707
# 103395
# 118265
# 132462
# 147382
# 159075
# 171725
# 185952
# 199362
# 212707
# 226287
# 240850
# 252405
#
# Disc length: 3545 seconds
#
#
# Revision: 0
# Processed by: cddbd v1.5.1PL0 Copyright (c) Steve Scherf et al.
# Submitted via: FreeRIP 2.931 
#
DISCID=2a0dd714
DTITLE=The Classic Ella Fitzgerald - The Definitive
DYEAR=2000
DGENRE=Blues
TTITLE0=01. Sing, Song, Swing
TTITLE1=02. It's Wonderful
TTITLE2=03. Organ Grinder's Swing
TTITLE3=04. A-Tisket, A-Tasket
TTITLE4=05. Sing Me A Swing Song (And Let Me Dance)
TTITLE5=06. All Over Nothing At All
TTITLE6=07. (If You Can't Sing It) You'll Have To Swing It (Mr.Paganini)
TTITLE7=08. My Melancholy Maby
TTITLE8=09. Undecided
TTITLE9=10. Darktown Strutters' Ball
TTITLE10=11. Stairway to The Stars
TTITLE11=12. I'll Chase the Blues Away
TTITLE12=13. Big Boy Blue
TTITLE13=14. Goodnight, My Love
TTITLE14=15. Imagination
TTITLE15=16. I Was Doing All Right
TTITLE16=17. Moon Ray
TTITLE17=18. Dedicated to You
TTITLE18=19. Baby, Won't You Please Come Home ?
TTITLE19=20. My Man (Mon Homme)
EXTD=
EXTT0=
EXTT1=
EXTT2=
EXTT3=
EXTT4=
EXTT5=
EXTT6=
EXTT7=
EXTT8=
EXTT9=
EXTT10=
EXTT11=
EXTT12=
EXTT13=
EXTT14=
EXTT15=
EXTT16=
EXTT17=
EXTT18=
EXTT19=
PLAYORDER=
